<svg xmlns="http://www.w3.org/2000/svg" viewBox="0 0 187.49 167.84"><defs><style>.cls-1{fill:#df2e62;}.cls-2{fill:#fff;}</style></defs><g id="Layer_2" data-name="Layer 2"><g id="Logo"><path class="cls-1" d="M39.4,157.63,2.74,94.13a20.41,20.41,0,0,1,0-20.42L39.4,10.21A20.42,20.42,0,0,1,57.08,0h73.33a20.42,20.42,0,0,1,17.68,10.21l36.66,63.5a20.41,20.41,0,0,1,0,20.42l-36.66,63.5a20.42,20.42,0,0,1-17.68,10.21H57.08A20.42,20.42,0,0,1,39.4,157.63Z"/><path class="cls-2" d="M51.73,130.18a4.14,4.14,0,0,1-3.59-2.07L23.82,86a4.14,4.14,0,0,1,0-4.14L48.14,39.73a4.14,4.14,0,0,1,7.18,4.14L32.2,83.92,55.32,124a4.14,4.14,0,0,1-3.59,6.21Z"/><path class="cls-2" d="M135.76,130.18a4.14,4.14,0,0,1-3.59-6.21l23.12-40L132.17,43.87a4.14,4.14,0,1,1,7.18-4.14l24.31,42.12a4.14,4.14,0,0,1,0,4.14l-24.31,42.12A4.14,4.14,0,0,1,135.76,130.18Z"/><path class="cls-2" d="M80.82,68.54a11.94,11.94,0,0,1,7.46,3.1,57.25,57.25,0,0,1,5.49,5.51,51.34,51.34,0,0,1,5.46-5.52,11.82,11.82,0,0,1,7.44-3.07,8.36,8.36,0,0,1,4.08,1,8.56,8.56,0,0,1,4.41,7.47,8.2,8.2,0,0,1-.42,2.58l-.12.39-.09.4c-.92,4.09-8.94,12.91-20.79,21.13C81.87,93.33,73.86,84.51,73,80.42L72.87,80l-.13-.39A8.11,8.11,0,0,1,72.32,77a8.55,8.55,0,0,1,4.39-7.44,8.46,8.46,0,0,1,4.1-1.06Zm0-8.29a16.78,16.78,0,0,0-16,22c2.87,13,28.87,29.29,28.87,29.29s26-16.3,28.88-29.26a16.27,16.27,0,0,0,.84-5.16,16.78,16.78,0,0,0-16.77-16.81h0a16.71,16.71,0,0,0-12.91,6.07,16.8,16.8,0,0,0-12.94-6.09Z"/></g></g></svg>