<?xml version="1.0" encoding="utf-8"?>
<!-- Generator: Adobe Illustrator 24.3.0, SVG Export Plug-In . SVG Version: 6.00 Build 0)  -->
<svg version="1.1" id="Layer_1" xmlns="http://www.w3.org/2000/svg" xmlns:xlink="http://www.w3.org/1999/xlink" x="0px" y="0px"
	 viewBox="0 0 295.2 295.2" style="enable-background:new 0 0 295.2 295.2;" xml:space="preserve">
<style type="text/css">
	.st0{fill:#FFFFFF;}
</style>
<g>
	<g>
		<g>
			<path class="st0" d="M277.5,0.1l-27.7,20.7l-27.8,64.9h-22.4l-8.8-19h5.7c10.5,0,19-8.5,19-19V28.6h9.5V0h-28.6v28.6h9.5v19.1
				c0,5.2-4.3,9.4-9.5,9.4h-10.1l-12.2-26.3l14.6-7.3L141,3.1l-11.2,39.3C129.5,19,110.4,0.1,87,0.1c-23.6,0-42.9,19.2-42.9,42.9
				c0,14.3,7.2,27.7,19,35.6v7.2H51.6l-0.7,3.9c-2.3,12-2.5,24.3-0.6,36.6l-32.5,57.9l35.9,8.2v60h47.6v42.9h114.3v-66.4
				c33.3-23.6,52.4-61.5,52.3-101.9l0-17.4c0-6.5-0.6-13.3-1.8-19.9l-0.7-3.9H256l21.4-51.3L277.5,0.1L277.5,0.1z M206,19.1V9.6h9.5
				v9.5H206z M189.1,85.7H171l-8.7-19h17.9L189.1,85.7z M147.2,16.1l18.9,8.1l-4.5,2.2l14.2,30.7H158l-11.6-25.5l-4.3,2.2
				L147.2,16.1z M160.5,85.7h-21.2v-9.4c0-5.3,4.3-9.6,9.5-9.6h3v0L160.5,85.7z M141.8,44.7l5.8,12.7c-9.9,0.7-17.8,8.8-17.8,18.9
				v9.4h-19v-7.2c9.5-6.4,16-16.4,18.2-27.5L141.8,44.7z M53.7,42.9c0-18.4,15-33.3,33.3-33.3s33.3,15,33.3,33.3
				c0,11.8-6.4,22.9-16.7,28.8l-2.4,1.4v12.6h-9.5V56.4c5.5-2,9.5-7.2,9.5-13.4c0-7.9-6.4-14.3-14.3-14.3s-14.3,6.4-14.3,14.3
				c0,6.2,4,11.4,9.5,13.4v29.4h-9.5V73.2l-2.4-1.4C60,65.8,53.7,54.8,53.7,42.9z M87,47.7c-2.6,0-4.8-2.1-4.8-4.8
				c0-2.6,2.1-4.8,4.8-4.8s4.8,2.1,4.8,4.8S89.6,47.7,87,47.7z M257.4,95.2c0.7,4.8,1,9.6,1,14.3l0,17.4c0,38.1-18.8,73.9-50.3,95.6
				l-2.1,1.4v61.8h-95.2v-42.9H63.2v-58.1l-30.9-7L60.2,128l-0.3-1.7c-1.8-10.4-1.9-21.6-0.3-31.1h3.6h47.6L257.4,95.2L257.4,95.2z
				 M245.7,85.7h-13.4L256,30.4l10.6,5.3L245.7,85.7z M267.9,25.7l-5.3-2.6l5.3-3.9V25.7z"/>
			<path class="st0" d="M96.5,123.8c-7.9,0-14.3-4.8-14.3-14.3h-9.5c0,14.3,10.7,23.8,23.8,23.8s23.8-9.5,23.8-23.8h-9.5
				C110.8,119,104.4,123.8,96.5,123.8z"/>
		</g>
	</g>
</g>
</svg>
